<svg t="1594779821094" class="icon" viewBox="0 0 1024 1024" version="1.1" xmlns="http://www.w3.org/2000/svg" p-id="20052" width="200" height="200"><path d="M1024 512c0 282.770286-229.229714 512-512 512S0 794.770286 0 512 229.229714 0 512 0s512 229.229714 512 512" fill="#1EAAE1" p-id="20053"></path><path d="M669.622857 452.534857c-72.338286-41.142857-189.001143 30.866286-227.474286-65.133714-14.006857-35.401143-14.006857-67.401143 20.992-84.553143 24.502857-12.580571 74.642286-13.714286 93.293715 9.142857 15.177143 18.285714 15.177143 82.285714 39.68 20.553143 14.006857-38.838857 11.666286-55.990857 44.324571-89.124571 19.858286-20.589714 59.501714-59.428571 26.843429-89.161143-32.658286-30.866286-53.650286 27.428571-90.989715 17.152-4.681143-35.437714 29.147429-60.562286 28.013715-92.562286-2.340571-43.446857-58.331429-29.732571-89.856-19.419429-24.502857 6.838857-75.812571 61.696-96.804572 22.820572-13.385143-25.088 22.966857-54.272 36.461715-78.738286a508.672 508.672 0 0 0-276.443429 121.307429c32.694857 29.842286 47.689143 77.824 49.810286 117.467428 2.340571 31.963429-5.814857 69.705143 4.681143 98.267429 16.347429 44.580571 30.354286 8.009143 67.657142 12.580571 51.346286 5.705143 149.321143 54.857143 117.833143 104.009143-17.517714 28.562286-41.984 33.133714-44.324571 70.838857-3.510857 47.981714 31.488 57.161143 59.465143 86.857143 59.501714 61.732571 25.673143 174.848 78.189714 229.705143l24.466286 19.419429c20.992 41.142857 72.338286-63.963429 77.019428-75.410286 6.985143-17.152 3.474286-37.705143 11.666286-52.553143 16.310857-27.428571 53.650286-46.884571 72.338286-62.866286 55.954286-48.018286 40.813714-182.857143-26.843429-220.598857" fill="#8CBE3C" p-id="20054"></path></svg>